<mxfile host="Electron" agent="Mozilla/5.0 (Windows NT 10.0; Win64; x64) AppleWebKit/537.36 (KHTML, like Gecko) draw.io/24.7.17 Chrome/128.0.6613.36 Electron/32.0.1 Safari/537.36" version="24.7.17">
  <diagram name="Página-1" id="GPr1cC8wJeIaOXFCkd0H">
    <mxGraphModel dx="1035" dy="626" grid="1" gridSize="10" guides="1" tooltips="1" connect="1" arrows="1" fold="1" page="1" pageScale="1" pageWidth="827" pageHeight="1169" math="0" shadow="0">
      <root>
        <mxCell id="0" />
        <mxCell id="1" parent="0" />
        <mxCell id="BAp42FtEXZmms4dF4hrD-1" value="" style="ellipse;whiteSpace=wrap;html=1;aspect=fixed;" vertex="1" parent="1">
          <mxGeometry x="300" y="30" width="50" height="50" as="geometry" />
        </mxCell>
        <mxCell id="BAp42FtEXZmms4dF4hrD-2" value="" style="endArrow=none;html=1;rounded=0;" edge="1" parent="1">
          <mxGeometry width="50" height="50" relative="1" as="geometry">
            <mxPoint x="324.76" y="130" as="sourcePoint" />
            <mxPoint x="324.76" y="80" as="targetPoint" />
          </mxGeometry>
        </mxCell>
        <mxCell id="BAp42FtEXZmms4dF4hrD-3" value="Se apreto el Boton &quot;On/Off&quot;&lt;div&gt;//Encender Impresora,&lt;/div&gt;&lt;div&gt;Habilitar Led de color Azul,&lt;/div&gt;&lt;div&gt;Habilitar boton OK&lt;/div&gt;" style="text;html=1;align=center;verticalAlign=middle;resizable=0;points=[];autosize=1;strokeColor=none;fillColor=none;" vertex="1" parent="1">
          <mxGeometry x="350" y="10" width="170" height="70" as="geometry" />
        </mxCell>
        <mxCell id="BAp42FtEXZmms4dF4hrD-6" value="" style="edgeStyle=orthogonalEdgeStyle;rounded=0;orthogonalLoop=1;jettySize=auto;html=1;" edge="1" parent="1" source="BAp42FtEXZmms4dF4hrD-4" target="BAp42FtEXZmms4dF4hrD-5">
          <mxGeometry relative="1" as="geometry" />
        </mxCell>
        <mxCell id="BAp42FtEXZmms4dF4hrD-4" value="Esperando&lt;div&gt;Recepcion&lt;/div&gt;&lt;div&gt;de TP Pendientes&lt;/div&gt;" style="rounded=1;whiteSpace=wrap;html=1;" vertex="1" parent="1">
          <mxGeometry x="265" y="130" width="120" height="60" as="geometry" />
        </mxCell>
        <mxCell id="BAp42FtEXZmms4dF4hrD-9" value="" style="edgeStyle=orthogonalEdgeStyle;rounded=0;orthogonalLoop=1;jettySize=auto;html=1;" edge="1" parent="1">
          <mxGeometry relative="1" as="geometry">
            <mxPoint x="385" y="350" as="sourcePoint" />
            <mxPoint x="560" y="350" as="targetPoint" />
            <Array as="points">
              <mxPoint x="530" y="350" />
              <mxPoint x="530" y="350" />
            </Array>
          </mxGeometry>
        </mxCell>
        <mxCell id="BAp42FtEXZmms4dF4hrD-5" value="Imprimiendo Trabajo" style="whiteSpace=wrap;html=1;rounded=1;" vertex="1" parent="1">
          <mxGeometry x="265" y="340" width="120" height="60" as="geometry" />
        </mxCell>
        <mxCell id="BAp42FtEXZmms4dF4hrD-7" value="Llega un Trabajo&lt;div&gt;//Cambiar Led a Verde,&lt;/div&gt;&lt;div&gt;Habilitar Sensores, Iniciar&lt;/div&gt;&lt;div&gt;Proceso de Impresion&lt;/div&gt;" style="text;html=1;align=center;verticalAlign=middle;resizable=0;points=[];autosize=1;strokeColor=none;fillColor=none;" vertex="1" parent="1">
          <mxGeometry x="330" y="190" width="160" height="70" as="geometry" />
        </mxCell>
        <mxCell id="BAp42FtEXZmms4dF4hrD-13" style="rounded=0;orthogonalLoop=1;jettySize=auto;html=1;entryX=0.99;entryY=0.41;entryDx=0;entryDy=0;entryPerimeter=0;" edge="1" parent="1" target="BAp42FtEXZmms4dF4hrD-5">
          <mxGeometry relative="1" as="geometry">
            <mxPoint x="560" y="379.71" as="sourcePoint" />
            <mxPoint x="385" y="379.71" as="targetPoint" />
          </mxGeometry>
        </mxCell>
        <mxCell id="BAp42FtEXZmms4dF4hrD-24" style="edgeStyle=orthogonalEdgeStyle;rounded=0;orthogonalLoop=1;jettySize=auto;html=1;curved=1;" edge="1" parent="1" source="BAp42FtEXZmms4dF4hrD-8">
          <mxGeometry relative="1" as="geometry">
            <mxPoint x="640" y="337" as="targetPoint" />
          </mxGeometry>
        </mxCell>
        <mxCell id="BAp42FtEXZmms4dF4hrD-8" value="Esperando&lt;div&gt;a Resolver&lt;/div&gt;" style="whiteSpace=wrap;html=1;rounded=1;" vertex="1" parent="1">
          <mxGeometry x="560" y="340" width="120" height="60" as="geometry" />
        </mxCell>
        <mxCell id="BAp42FtEXZmms4dF4hrD-10" value="&lt;h5 style=&quot;font-size: 8px;&quot;&gt;&lt;span style=&quot;font-weight: normal;&quot;&gt;Impresion Falla&lt;br&gt;[Falta Papel]&lt;br&gt;//Detener Proceso, Guardar P,&amp;nbsp;&lt;br&gt;Cambiar Led a Amarillo&lt;/span&gt;&lt;/h5&gt;" style="text;html=1;align=center;verticalAlign=middle;resizable=0;points=[];autosize=1;strokeColor=none;fillColor=none;" vertex="1" parent="1">
          <mxGeometry x="370" y="290" width="130" height="80" as="geometry" />
        </mxCell>
        <mxCell id="BAp42FtEXZmms4dF4hrD-11" value="" style="rounded=0;orthogonalLoop=1;jettySize=auto;html=1;exitX=1.006;exitY=0.823;exitDx=0;exitDy=0;exitPerimeter=0;" edge="1" parent="1" source="BAp42FtEXZmms4dF4hrD-5">
          <mxGeometry relative="1" as="geometry">
            <mxPoint x="385" y="360" as="sourcePoint" />
            <mxPoint x="560" y="360" as="targetPoint" />
          </mxGeometry>
        </mxCell>
        <mxCell id="BAp42FtEXZmms4dF4hrD-12" value="&lt;h5 style=&quot;font-size: 8px;&quot;&gt;&lt;span style=&quot;font-weight: normal;&quot;&gt;Impresion Falla&lt;br&gt;[Falta Tintal]&lt;br&gt;//Detener Proceso, Guardar ¨P&lt;br&gt;Cambiar Led a Rojo&lt;/span&gt;&lt;/h5&gt;" style="text;html=1;align=center;verticalAlign=middle;resizable=0;points=[];autosize=1;strokeColor=none;fillColor=none;" vertex="1" parent="1">
          <mxGeometry x="320" y="380" width="130" height="80" as="geometry" />
        </mxCell>
        <mxCell id="BAp42FtEXZmms4dF4hrD-14" value="" style="ellipse;shape=doubleEllipse;whiteSpace=wrap;html=1;aspect=fixed;" vertex="1" parent="1">
          <mxGeometry x="80" y="135" width="50" height="50" as="geometry" />
        </mxCell>
        <mxCell id="BAp42FtEXZmms4dF4hrD-15" value="" style="endArrow=none;html=1;rounded=0;exitX=0;exitY=0.5;exitDx=0;exitDy=0;" edge="1" parent="1" source="BAp42FtEXZmms4dF4hrD-4" target="BAp42FtEXZmms4dF4hrD-14">
          <mxGeometry width="50" height="50" relative="1" as="geometry">
            <mxPoint x="154.86" y="230" as="sourcePoint" />
            <mxPoint x="154.86" y="180" as="targetPoint" />
          </mxGeometry>
        </mxCell>
        <mxCell id="BAp42FtEXZmms4dF4hrD-16" value="Se apreto el Boton &quot;On/Off&quot;&lt;div&gt;//Apagar Impresora,&lt;/div&gt;&lt;div&gt;Apagar Led&lt;/div&gt;" style="text;html=1;align=center;verticalAlign=middle;resizable=0;points=[];autosize=1;strokeColor=none;fillColor=none;" vertex="1" parent="1">
          <mxGeometry x="80" y="90" width="170" height="60" as="geometry" />
        </mxCell>
        <mxCell id="BAp42FtEXZmms4dF4hrD-17" value="" style="ellipse;shape=doubleEllipse;whiteSpace=wrap;html=1;aspect=fixed;" vertex="1" parent="1">
          <mxGeometry x="80" y="345" width="50" height="50" as="geometry" />
        </mxCell>
        <mxCell id="BAp42FtEXZmms4dF4hrD-18" value="" style="endArrow=none;html=1;rounded=0;exitX=0;exitY=0.5;exitDx=0;exitDy=0;" edge="1" parent="1" target="BAp42FtEXZmms4dF4hrD-17">
          <mxGeometry width="50" height="50" relative="1" as="geometry">
            <mxPoint x="265" y="370" as="sourcePoint" />
            <mxPoint x="154.86" y="390" as="targetPoint" />
          </mxGeometry>
        </mxCell>
        <mxCell id="BAp42FtEXZmms4dF4hrD-19" value="Se apreto el Boton &quot;On/Off&quot;&lt;div&gt;//Apagar Impresora,&lt;/div&gt;&lt;div&gt;Apagar Led&lt;/div&gt;" style="text;html=1;align=center;verticalAlign=middle;resizable=0;points=[];autosize=1;strokeColor=none;fillColor=none;" vertex="1" parent="1">
          <mxGeometry x="80" y="300" width="170" height="60" as="geometry" />
        </mxCell>
        <mxCell id="BAp42FtEXZmms4dF4hrD-20" value="" style="ellipse;shape=doubleEllipse;whiteSpace=wrap;html=1;aspect=fixed;" vertex="1" parent="1">
          <mxGeometry x="595" y="490" width="50" height="50" as="geometry" />
        </mxCell>
        <mxCell id="BAp42FtEXZmms4dF4hrD-21" value="" style="endArrow=none;html=1;rounded=0;exitX=0.5;exitY=1;exitDx=0;exitDy=0;" edge="1" parent="1" target="BAp42FtEXZmms4dF4hrD-20" source="BAp42FtEXZmms4dF4hrD-8">
          <mxGeometry width="50" height="50" relative="1" as="geometry">
            <mxPoint x="735" y="500" as="sourcePoint" />
            <mxPoint x="624.86" y="520" as="targetPoint" />
          </mxGeometry>
        </mxCell>
        <mxCell id="BAp42FtEXZmms4dF4hrD-22" value="Se apreto el Boton &quot;On/Off&quot;&lt;div&gt;//Apagar Impresora,&lt;/div&gt;&lt;div&gt;Apagar Led&lt;/div&gt;" style="text;html=1;align=center;verticalAlign=middle;resizable=0;points=[];autosize=1;strokeColor=none;fillColor=none;" vertex="1" parent="1">
          <mxGeometry x="620" y="450" width="170" height="60" as="geometry" />
        </mxCell>
        <mxCell id="BAp42FtEXZmms4dF4hrD-23" value="&lt;h5 style=&quot;font-size: 8px;&quot;&gt;&lt;span style=&quot;font-weight: normal;&quot;&gt;Se apreto boton &quot;Ok&quot;&lt;br&gt;[Se detecto tinta y papel]&lt;br&gt;//Continuar Impresion,&lt;br&gt;Cambiar Led a Verde&lt;/span&gt;&lt;/h5&gt;" style="text;html=1;align=left;verticalAlign=middle;resizable=0;points=[];autosize=1;strokeColor=none;fillColor=none;" vertex="1" parent="1">
          <mxGeometry x="480" y="360" width="110" height="80" as="geometry" />
        </mxCell>
        <mxCell id="BAp42FtEXZmms4dF4hrD-25" value="&lt;h5 style=&quot;font-size: 8px;&quot;&gt;&lt;span style=&quot;font-weight: normal;&quot;&gt;Se apreto boton &quot;Ok&quot;&lt;br&gt;[No se detecto tinta y papel]&lt;br&gt;//Informar Usuario&lt;br&gt;&lt;/span&gt;&lt;/h5&gt;" style="text;html=1;align=left;verticalAlign=middle;resizable=0;points=[];autosize=1;strokeColor=none;fillColor=none;" vertex="1" parent="1">
          <mxGeometry x="590" y="270" width="120" height="70" as="geometry" />
        </mxCell>
        <mxCell id="BAp42FtEXZmms4dF4hrD-26" style="edgeStyle=orthogonalEdgeStyle;rounded=0;orthogonalLoop=1;jettySize=auto;html=1;entryX=0.163;entryY=1.033;entryDx=0;entryDy=0;entryPerimeter=0;" edge="1" parent="1">
          <mxGeometry relative="1" as="geometry">
            <mxPoint x="310.02333333333326" y="340" as="sourcePoint" />
            <mxPoint x="309.99999999999994" y="191.98000000000002" as="targetPoint" />
            <Array as="points">
              <mxPoint x="310.44" y="265" />
            </Array>
          </mxGeometry>
        </mxCell>
        <mxCell id="BAp42FtEXZmms4dF4hrD-27" value="Se imprimio un Trabajo&lt;div&gt;//Cambiar Led&amp;nbsp;&lt;span style=&quot;background-color: initial;&quot;&gt;a Azul,&lt;/span&gt;&lt;/div&gt;&lt;div&gt;Desactivar Sensores&lt;/div&gt;" style="text;html=1;align=center;verticalAlign=middle;resizable=0;points=[];autosize=1;strokeColor=none;fillColor=none;" vertex="1" parent="1">
          <mxGeometry x="160" y="190" width="150" height="60" as="geometry" />
        </mxCell>
      </root>
    </mxGraphModel>
  </diagram>
</mxfile>
